<?xml version="1.0" encoding="UTF-8"?>
<svg width="214px" height="153px" viewBox="0 0 214 153" version="1.1" xmlns="http://www.w3.org/2000/svg" xmlns:xlink="http://www.w3.org/1999/xlink">
    <!-- Generator: Sketch 50.2 (55047) - http://www.bohemiancoding.com/sketch -->
    <title>illustration_screen3@1x</title>
    <desc>Created with Sketch.</desc>
    <defs></defs>
    <g id="Drawer-Menu" stroke="none" stroke-width="1" fill="none" fill-rule="evenodd">
        <g id="screen-three" transform="translate(-81.000000, -179.000000)">
            <g id="illustration_screen3" transform="translate(82.000000, 180.000000)">
                <g id="Group" transform="translate(70.000000, 21.000000)">
                    <g id="smartphone">
                        <path d="M0,72.6686633 L0,2.17021277 C-1.3527075e-16,0.971637351 0.8954305,2.20174732e-16 2,0 L64,0 C65.1045695,-2.20174732e-16 66,0.971637351 66,2.17021277 L66,99.8297872 C66,101.028363 65.1045695,102 64,102 L21.3468281,102" id="Rectangle-path" stroke="#5D2555" stroke-width="2" stroke-linecap="round" stroke-linejoin="round"></path>
                        <path d="M24.8542969,37.2636719 C23.8061145,37.2636719 22.9903675,37.8834573 22.4070312,39.1230469 C21.823695,40.3626364 21.5320312,42.1126189 21.5320312,44.3730469 C21.5320312,46.6425895 21.823695,48.3994078 22.4070312,49.6435547 C22.9903675,50.8877015 23.8061145,51.5097656 24.8542969,51.5097656 C25.9115938,51.5097656 26.7318981,50.8877015 27.3152344,49.6435547 C27.8985706,48.3994078 28.1902344,46.6425895 28.1902344,44.3730469 C28.1902344,42.1126189 27.8985706,40.3626364 27.3152344,39.1230469 C26.7318981,37.8834573 25.9115938,37.2636719 24.8542969,37.2636719 Z M24.8542969,53.4511719 C23.1407466,53.4511719 21.7804087,52.6422607 20.7732422,51.0244141 C19.7660757,49.4065674 19.2625,47.1894672 19.2625,44.3730469 C19.2625,41.5657412 19.7660757,39.3531982 20.7732422,37.7353516 C21.7804087,36.1175049 23.1407466,35.3085938 24.8542969,35.3085938 C26.5678471,35.3085938 27.9304637,36.1197836 28.9421875,37.7421875 C29.9539113,39.3645914 30.4597656,41.5748558 30.4597656,44.3730469 C30.4597656,47.1712379 29.9539113,49.3837809 28.9421875,51.0107422 C27.9304637,52.6377034 26.5678471,53.4511719 24.8542969,53.4511719 Z M43.5273438,43.59375 C44.5937553,43.8854181 45.4208955,44.4163373 46.0087891,45.1865234 C46.5966826,45.9567096 46.890625,46.8977809 46.890625,48.0097656 C46.890625,49.6048257 46.3255265,50.9104767 45.1953125,51.9267578 C44.0650985,52.9430389 42.6022225,53.4511719 40.8066406,53.4511719 C39.421217,53.4511719 38.188482,53.184573 37.1083984,52.6513672 C36.0283149,52.1181614 35.4882812,51.5325553 35.4882812,50.8945312 C35.4882812,50.6210924 35.586262,50.3955087 35.7822266,50.2177734 C35.9781911,50.0400382 36.2174465,49.9511719 36.5,49.9511719 C36.6549487,49.9511719 37.2177686,50.1835914 38.1884766,50.6484375 C39.1591845,51.1132836 40.0637979,51.3457031 40.9023438,51.3457031 C41.9869846,51.3457031 42.8688117,51.0358104 43.5478516,50.4160156 C44.2268914,49.7962209 44.5664062,48.9941455 44.5664062,48.0097656 C44.5664062,47.1985637 44.3317081,46.5126981 43.8623047,45.9521484 C43.3929013,45.3915988 42.748051,45.0338549 41.9277344,44.8789062 C41.6816394,44.8333331 41.3580749,44.7968751 40.9570312,44.7695312 C40.1914024,44.7239581 39.8085938,44.4049509 39.8085938,43.8125 C39.8085938,43.2747369 40.1822879,42.9602869 40.9296875,42.8691406 C41.2213556,42.8417967 41.4628897,42.809896 41.6542969,42.7734375 C42.3652379,42.664062 42.9394509,42.3723982 43.3769531,41.8984375 C43.8144553,41.4244768 44.0332031,40.8502638 44.0332031,40.1757812 C44.0332031,39.3098915 43.7643256,38.6035184 43.2265625,38.0566406 C42.6887994,37.5097629 42.0052125,37.2363281 41.1757812,37.2363281 C40.4101524,37.2363281 39.6240275,37.4733049 38.8173828,37.9472656 C38.0107382,38.4212263 37.5071625,38.6582031 37.3066406,38.6582031 C37.051431,38.6582031 36.8395191,38.5761727 36.6708984,38.4121094 C36.5022778,38.2480461 36.4179688,38.04297 36.4179688,37.796875 C36.4179688,37.2408826 36.9283803,36.6871772 37.9492188,36.1357422 C38.9700572,35.5843071 40.1002542,35.3085938 41.3398438,35.3085938 C42.7617259,35.3085938 43.9443312,35.7392535 44.8876953,36.6005859 C45.8310594,37.4619184 46.3027344,38.5214781 46.3027344,39.7792969 C46.3027344,40.7363329 46.0771507,41.5247365 45.6259766,42.1445312 C45.1748024,42.764326 44.4752652,43.2473941 43.5273438,43.59375 Z" id="03" fill="#5D2555"></path>
                    </g>
                    <circle id="Oval-3" stroke="#5D2555" stroke-width="2" cx="33" cy="89" r="3"></circle>
                </g>
                <g id="Group-3" transform="translate(162.500000, 131.500000) scale(-1, 1) translate(-162.500000, -131.500000) translate(120.000000, 112.000000)" stroke="#5D2555" stroke-linecap="round" stroke-linejoin="round" stroke-width="2">
                    <path d="M84.5734258,37.79807 C81.9182071,36.5835823 78.965647,35.9067133 75.8549956,35.9067133 C72.6021405,35.9067133 69.5221613,36.6468831 66.774292,37.9679887" id="Oval-12"></path>
                    <path d="M67.1040973,38.4218565 C67.1040973,17.2020511 50.0552327,0 29.0243924,0 C17.3959066,0 6.98481635,5.25912282 0,13.5486429" id="Oval-12-Copy"></path>
                    <path d="M61.7867613,38.3357614 C61.7867613,26.5007491 55.5260469,16.1351392 46.1511395,10.4008044" id="Oval-12-Copy"></path>
                </g>
                <circle id="circle" stroke="#5D2555" stroke-width="2" stroke-linecap="round" stroke-linejoin="round" cx="33" cy="24" r="5"></circle>
                <circle id="circle-copy" stroke="#5D2555" stroke-width="2" stroke-linecap="round" stroke-linejoin="round" cx="185" cy="37" r="3"></circle>
                <path d="M45.1988403,92.6134094 C40.5276308,86.4490762 32.9977815,82.4481371 24.5042606,82.4481371 C14.1455344,82.4481371 5.22020439,88.3992629 1.16588934,96.9680658" id="Oval-11-Copy-3" stroke="#5D2555" stroke-width="2" stroke-linecap="round" stroke-linejoin="round" transform="translate(23.182365, 89.708101) rotate(18.000000) translate(-23.182365, -89.708101) "></path>
                <path d="M63,111 C63,103.820298 56.8608174,98 49.2877518,98 C47.0213756,98 44.8834199,98.5212737 43,99.4442565" id="Oval-13" stroke="#5D2555" stroke-width="2" stroke-linecap="round" stroke-linejoin="round"></path>
                <path d="M82,118 C82,111.924868 77.1075414,107 71.0723879,107 C67.8749854,107 64.9983193,108.382333 63,110.585694" id="Oval-13-Copy" stroke="#5D2555" stroke-width="2" stroke-linecap="round" stroke-linejoin="round"></path>
                <g id="Group-2" transform="translate(12.000000, 113.000000)" stroke="#5D2555" stroke-linecap="round" stroke-linejoin="round" stroke-width="2">
                    <path d="M0,9 C4.97056275,9 9,4.97056275 9,0" id="Oval-6"></path>
                    <path d="M9,9 C13.9705627,9 18,4.97056275 18,0" id="Oval-6-Copy" transform="translate(13.500000, 4.500000) scale(-1, 1) translate(-13.500000, -4.500000) "></path>
                    <path d="M9,18 C13.9705627,18 18,13.9705627 18,9" id="Oval-6" transform="translate(13.500000, 13.500000) rotate(-180.000000) translate(-13.500000, -13.500000) "></path>
                    <path d="M0,18 C4.97056275,18 9,13.9705627 9,9" id="Oval-6-Copy" transform="translate(4.500000, 13.500000) scale(-1, 1) rotate(-180.000000) translate(-4.500000, -13.500000) "></path>
                </g>
                <g id="Group-2-Copy" transform="translate(153.000000, 0.000000)" stroke="#5D2555" stroke-linecap="round" stroke-linejoin="round" stroke-width="2">
                    <path d="M0,9 C4.97056275,9 9,4.97056275 9,0" id="Oval-6"></path>
                    <path d="M9,9 C13.9705627,9 18,4.97056275 18,0" id="Oval-6-Copy" transform="translate(13.500000, 4.500000) scale(-1, 1) translate(-13.500000, -4.500000) "></path>
                    <path d="M9,18 C13.9705627,18 18,13.9705627 18,9" id="Oval-6" transform="translate(13.500000, 13.500000) rotate(-180.000000) translate(-13.500000, -13.500000) "></path>
                    <path d="M0,18 C4.97056275,18 9,13.9705627 9,9" id="Oval-6-Copy" transform="translate(4.500000, 13.500000) scale(-1, 1) rotate(-180.000000) translate(-4.500000, -13.500000) "></path>
                </g>
                <g id="Group-4" transform="translate(155.000000, 71.000000)" stroke="#5D2555" stroke-linecap="round" stroke-linejoin="round" stroke-width="2">
                    <path d="M22,13.1496198 C20.1108948,9.50678718 16.1601927,7 11.5924644,7 C5.1901231,7 0,11.9248678 0,18" id="Oval-11"></path>
                    <path d="M57,8.24817796 C53.3410317,3.2463919 47.4428847,0 40.7898917,0 C32.2098838,0 24.8853264,5.39935885 22,13" id="Oval-11-Copy"></path>
                </g>
            </g>
        </g>
    </g>
</svg>