<?xml version="1.0" encoding="UTF-8"?>
<svg width="214px" height="153px" viewBox="0 0 214 153" version="1.1" xmlns="http://www.w3.org/2000/svg" xmlns:xlink="http://www.w3.org/1999/xlink">
    <!-- Generator: Sketch 50.2 (55047) - http://www.bohemiancoding.com/sketch -->
    <title>illustration_screen2@1x</title>
    <desc>Created with Sketch.</desc>
    <defs></defs>
    <g id="Drawer-Menu" stroke="none" stroke-width="1" fill="none" fill-rule="evenodd">
        <g id="screen-two" transform="translate(-81.000000, -179.000000)">
            <g id="illustration_screen2" transform="translate(82.000000, 180.000000)">
                <g id="Group" transform="translate(70.000000, 21.000000)">
                    <g id="smartphone">
                        <path d="M0,72.6686633 L0,2.17021277 C-1.3527075e-16,0.971637351 0.8954305,2.20174732e-16 2,0 L64,0 C65.1045695,-2.20174732e-16 66,0.971637351 66,2.17021277 L66,99.8297872 C66,101.028363 65.1045695,102 64,102 L21.3468281,102" id="Rectangle-path" stroke="#FF3A3A" stroke-width="2" stroke-linecap="round" stroke-linejoin="round"></path>
                        <path d="M24.8542969,37.2636719 C23.8061145,37.2636719 22.9903675,37.8834573 22.4070312,39.1230469 C21.823695,40.3626364 21.5320312,42.1126189 21.5320312,44.3730469 C21.5320312,46.6425895 21.823695,48.3994078 22.4070312,49.6435547 C22.9903675,50.8877015 23.8061145,51.5097656 24.8542969,51.5097656 C25.9115938,51.5097656 26.7318981,50.8877015 27.3152344,49.6435547 C27.8985706,48.3994078 28.1902344,46.6425895 28.1902344,44.3730469 C28.1902344,42.1126189 27.8985706,40.3626364 27.3152344,39.1230469 C26.7318981,37.8834573 25.9115938,37.2636719 24.8542969,37.2636719 Z M24.8542969,53.4511719 C23.1407466,53.4511719 21.7804087,52.6422607 20.7732422,51.0244141 C19.7660757,49.4065674 19.2625,47.1894672 19.2625,44.3730469 C19.2625,41.5657412 19.7660757,39.3531982 20.7732422,37.7353516 C21.7804087,36.1175049 23.1407466,35.3085938 24.8542969,35.3085938 C26.5678471,35.3085938 27.9304637,36.1197836 28.9421875,37.7421875 C29.9539113,39.3645914 30.4597656,41.5748558 30.4597656,44.3730469 C30.4597656,47.1712379 29.9539113,49.3837809 28.9421875,51.0107422 C27.9304637,52.6377034 26.5678471,53.4511719 24.8542969,53.4511719 Z M36.6367188,53 C36.1536434,53 35.7958996,52.9020192 35.5634766,52.7060547 C35.3310535,52.5100902 35.2148438,52.2070333 35.2148438,51.796875 C35.2148438,51.2044241 36.089835,50.0924561 37.8398438,48.4609375 L38.2363281,48.078125 C38.5006524,47.8229154 38.883461,47.4583357 39.3847656,46.984375 C42.5384272,44.013006 44.1152344,41.8483141 44.1152344,40.4902344 C44.1152344,39.5149691 43.8372424,38.7242869 43.28125,38.1181641 C42.7252576,37.5120412 42.0052128,37.2089844 41.1210938,37.2089844 C40.5468721,37.2089844 39.997724,37.3274728 39.4736328,37.5644531 C38.9495417,37.8014335 38.5279964,38.1204407 38.2089844,38.5214844 C38.1542966,38.5944014 38.0677089,38.7174471 37.9492188,38.890625 C37.6119775,39.5013051 37.2337261,39.8066406 36.8144531,39.8066406 C36.4863265,39.8066406 36.2539069,39.7063812 36.1171875,39.5058594 C35.9804681,39.3053375 35.9121094,38.9225289 35.9121094,38.3574219 C35.9121094,38.0292952 35.9440101,37.7900398 36.0078125,37.6396484 C36.0716149,37.4892571 36.1901033,37.3274748 36.3632812,37.1542969 C36.9466175,36.5891899 37.668941,36.1403011 38.5302734,35.8076172 C39.3916059,35.4749332 40.273433,35.3085938 41.1757812,35.3085938 C42.6888096,35.3085938 43.9534454,35.7962191 44.9697266,36.7714844 C45.9860077,37.7467497 46.4941406,38.9453054 46.4941406,40.3671875 C46.4941406,42.1536548 44.944677,44.52798 41.8457031,47.4902344 C41.0527304,48.2285193 40.4466167,48.8072896 40.0273438,49.2265625 L38.3457031,50.8398438 L44.59375,50.8398438 C44.6302085,50.4479147 44.7373038,50.1494151 44.9150391,49.9443359 C45.0927743,49.7392568 45.3320297,49.6367188 45.6328125,49.6367188 C45.9335953,49.6367188 46.1705721,49.7369782 46.34375,49.9375 C46.5169279,50.1380218 46.6035156,50.4114566 46.6035156,50.7578125 C46.6035156,50.7851564 46.5989584,50.8330075 46.5898438,50.9013672 C46.5807291,50.9697269 46.5761719,51.017578 46.5761719,51.0449219 L46.4667969,52.0976562 C46.439453,52.3802097 46.3574226,52.6012362 46.2207031,52.7607422 C46.0839837,52.9202482 45.9062511,53 45.6875,53 L36.6367188,53 Z" id="02" fill="#FF3A3A"></path>
                    </g>
                    <circle id="Oval-3" stroke="#FF3A3A" stroke-width="2" cx="33" cy="89" r="3"></circle>
                </g>
                <g id="Group-3" transform="translate(162.500000, 131.500000) scale(-1, 1) translate(-162.500000, -131.500000) translate(120.000000, 112.000000)" stroke="#FF3A3A" stroke-linecap="round" stroke-linejoin="round" stroke-width="2">
                    <path d="M84.5734258,37.79807 C81.9182071,36.5835823 78.965647,35.9067133 75.8549956,35.9067133 C72.6021405,35.9067133 69.5221613,36.6468831 66.774292,37.9679887" id="Oval-12"></path>
                    <path d="M67.1040973,38.4218565 C67.1040973,17.2020511 50.0552327,0 29.0243924,0 C17.3959066,0 6.98481635,5.25912282 0,13.5486429" id="Oval-12-Copy"></path>
                    <path d="M61.7867613,38.3357614 C61.7867613,26.5007491 55.5260469,16.1351392 46.1511395,10.4008044" id="Oval-12-Copy"></path>
                </g>
                <circle id="circle" stroke="#FF3A3A" stroke-width="2" stroke-linecap="round" stroke-linejoin="round" cx="33" cy="24" r="5"></circle>
                <circle id="circle-copy" stroke="#FF3A3A" stroke-width="2" stroke-linecap="round" stroke-linejoin="round" cx="185" cy="37" r="3"></circle>
                <path d="M45.1988403,92.6134094 C40.5276308,86.4490762 32.9977815,82.4481371 24.5042606,82.4481371 C14.1455344,82.4481371 5.22020439,88.3992629 1.16588934,96.9680658" id="Oval-11-Copy-3" stroke="#FF3A3A" stroke-width="2" stroke-linecap="round" stroke-linejoin="round" transform="translate(23.182365, 89.708101) rotate(18.000000) translate(-23.182365, -89.708101) "></path>
                <path d="M63,111 C63,103.820298 56.8608174,98 49.2877518,98 C47.0213756,98 44.8834199,98.5212737 43,99.4442565" id="Oval-13" stroke="#FF3A3A" stroke-width="2" stroke-linecap="round" stroke-linejoin="round"></path>
                <path d="M82,118 C82,111.924868 77.1075414,107 71.0723879,107 C67.8749854,107 64.9983193,108.382333 63,110.585694" id="Oval-13-Copy" stroke="#FF3A3A" stroke-width="2" stroke-linecap="round" stroke-linejoin="round"></path>
                <g id="Group-2" transform="translate(12.000000, 113.000000)" stroke="#FF3A3A" stroke-linecap="round" stroke-linejoin="round" stroke-width="2">
                    <path d="M0,9 C4.97056275,9 9,4.97056275 9,0" id="Oval-6"></path>
                    <path d="M9,9 C13.9705627,9 18,4.97056275 18,0" id="Oval-6-Copy" transform="translate(13.500000, 4.500000) scale(-1, 1) translate(-13.500000, -4.500000) "></path>
                    <path d="M9,18 C13.9705627,18 18,13.9705627 18,9" id="Oval-6" transform="translate(13.500000, 13.500000) rotate(-180.000000) translate(-13.500000, -13.500000) "></path>
                    <path d="M0,18 C4.97056275,18 9,13.9705627 9,9" id="Oval-6-Copy" transform="translate(4.500000, 13.500000) scale(-1, 1) rotate(-180.000000) translate(-4.500000, -13.500000) "></path>
                </g>
                <g id="Group-2-Copy" transform="translate(153.000000, 0.000000)" stroke="#FF3A3A" stroke-linecap="round" stroke-linejoin="round" stroke-width="2">
                    <path d="M0,9 C4.97056275,9 9,4.97056275 9,0" id="Oval-6"></path>
                    <path d="M9,9 C13.9705627,9 18,4.97056275 18,0" id="Oval-6-Copy" transform="translate(13.500000, 4.500000) scale(-1, 1) translate(-13.500000, -4.500000) "></path>
                    <path d="M9,18 C13.9705627,18 18,13.9705627 18,9" id="Oval-6" transform="translate(13.500000, 13.500000) rotate(-180.000000) translate(-13.500000, -13.500000) "></path>
                    <path d="M0,18 C4.97056275,18 9,13.9705627 9,9" id="Oval-6-Copy" transform="translate(4.500000, 13.500000) scale(-1, 1) rotate(-180.000000) translate(-4.500000, -13.500000) "></path>
                </g>
                <g id="Group-4" transform="translate(155.000000, 71.000000)" stroke="#FF3A3A" stroke-linecap="round" stroke-linejoin="round" stroke-width="2">
                    <path d="M22,13.1496198 C20.1108948,9.50678718 16.1601927,7 11.5924644,7 C5.1901231,7 0,11.9248678 0,18" id="Oval-11"></path>
                    <path d="M57,8.24817796 C53.3410317,3.2463919 47.4428847,0 40.7898917,0 C32.2098838,0 24.8853264,5.39935885 22,13" id="Oval-11-Copy"></path>
                </g>
            </g>
        </g>
    </g>
</svg>