<?xml version="1.0" encoding="UTF-8"?>
<svg width="214px" height="153px" viewBox="0 0 214 153" version="1.1" xmlns="http://www.w3.org/2000/svg" xmlns:xlink="http://www.w3.org/1999/xlink">
    <!-- Generator: Sketch 50.2 (55047) - http://www.bohemiancoding.com/sketch -->
    <title>illustration_screen1@1x</title>
    <desc>Created with Sketch.</desc>
    <defs></defs>
    <g id="Drawer-Menu" stroke="none" stroke-width="1" fill="none" fill-rule="evenodd">
        <g id="screen-one" transform="translate(-81.000000, -179.000000)">
            <g id="illustration_screen1" transform="translate(82.000000, 180.000000)">
                <g id="Group" transform="translate(70.000000, 21.000000)">
                    <g id="smartphone">
                        <path d="M0,72.6686633 L0,2.17021277 C-1.3527075e-16,0.971637351 0.8954305,2.20174732e-16 2,0 L64,0 C65.1045695,-2.20174732e-16 66,0.971637351 66,2.17021277 L66,99.8297872 C66,101.028363 65.1045695,102 64,102 L21.3468281,102" id="Rectangle-path" stroke="#AE30FF" stroke-width="2" stroke-linecap="round" stroke-linejoin="round"></path>
                        <path d="M25.3542969,37.2636719 C24.3061145,37.2636719 23.4903675,37.8834573 22.9070312,39.1230469 C22.323695,40.3626364 22.0320312,42.1126189 22.0320312,44.3730469 C22.0320312,46.6425895 22.323695,48.3994078 22.9070312,49.6435547 C23.4903675,50.8877015 24.3061145,51.5097656 25.3542969,51.5097656 C26.4115938,51.5097656 27.2318981,50.8877015 27.8152344,49.6435547 C28.3985706,48.3994078 28.6902344,46.6425895 28.6902344,44.3730469 C28.6902344,42.1126189 28.3985706,40.3626364 27.8152344,39.1230469 C27.2318981,37.8834573 26.4115938,37.2636719 25.3542969,37.2636719 Z M25.3542969,53.4511719 C23.6407466,53.4511719 22.2804087,52.6422607 21.2732422,51.0244141 C20.2660757,49.4065674 19.7625,47.1894672 19.7625,44.3730469 C19.7625,41.5657412 20.2660757,39.3531982 21.2732422,37.7353516 C22.2804087,36.1175049 23.6407466,35.3085938 25.3542969,35.3085938 C27.0678471,35.3085938 28.4304637,36.1197836 29.4421875,37.7421875 C30.4539113,39.3645914 30.9597656,41.5748558 30.9597656,44.3730469 C30.9597656,47.1712379 30.4539113,49.3837809 29.4421875,51.0107422 C28.4304637,52.6377034 27.0678471,53.4511719 25.3542969,53.4511719 Z M38.6269531,38.3300781 L38.3603516,38.3710938 C38.3011065,38.3802084 38.2486981,38.3847656 38.203125,38.3847656 C37.9205715,38.3847656 37.6904306,38.3050138 37.5126953,38.1455078 C37.33496,37.9860018 37.2460938,37.7740899 37.2460938,37.5097656 C37.2460938,37.2910145 37.3235669,37.0996102 37.4785156,36.9355469 C37.6334643,36.7714836 37.8567694,36.6484379 38.1484375,36.5664062 L42.2089844,35.4726562 C42.3092453,35.4453124 42.4072261,35.4248048 42.5029297,35.4111328 C42.5986333,35.3974609 42.6966141,35.390625 42.796875,35.390625 C42.9700529,35.390625 43.1067703,35.4703768 43.2070312,35.6298828 C43.3072922,35.7893888 43.3574219,36.005858 43.3574219,36.2792969 L43.3574219,51.0722656 L45.5449219,51.0722656 C46.3561238,51.0722656 46.8710927,51.1383457 47.0898438,51.2705078 C47.3085948,51.4026699 47.4179688,51.6510398 47.4179688,52.015625 C47.4179688,52.3437516 47.3268238,52.5898429 47.1445312,52.7539062 C46.9622387,52.9179696 46.6888039,53 46.3242188,53 L38.1484375,53 C37.7838523,53 37.5104176,52.9179696 37.328125,52.7539062 C37.1458324,52.5898429 37.0546875,52.3437516 37.0546875,52.015625 C37.0546875,51.6510398 37.1640614,51.4026699 37.3828125,51.2705078 C37.6015636,51.1383457 38.1165324,51.0722656 38.9277344,51.0722656 L41.1972656,51.0722656 L41.1972656,37.7148438 L38.6269531,38.3300781 Z" id="01" fill="#AE30FF"></path>
                    </g>
                    <circle id="Oval-3" stroke="#AE30FF" stroke-width="2" cx="33" cy="89" r="3"></circle>
                </g>
                <g id="Group-3" transform="translate(162.500000, 131.500000) scale(-1, 1) translate(-162.500000, -131.500000) translate(120.000000, 112.000000)" stroke="#AE30FF" stroke-linecap="round" stroke-linejoin="round" stroke-width="2">
                    <path d="M84.5734258,37.79807 C81.9182071,36.5835823 78.965647,35.9067133 75.8549956,35.9067133 C72.6021405,35.9067133 69.5221613,36.6468831 66.774292,37.9679887" id="Oval-12"></path>
                    <path d="M67.1040973,38.4218565 C67.1040973,17.2020511 50.0552327,0 29.0243924,0 C17.3959066,0 6.98481635,5.25912282 0,13.5486429" id="Oval-12-Copy"></path>
                    <path d="M61.7867613,38.3357614 C61.7867613,26.5007491 55.5260469,16.1351392 46.1511395,10.4008044" id="Oval-12-Copy"></path>
                </g>
                <circle id="circle" stroke="#AE30FF" stroke-width="2" stroke-linecap="round" stroke-linejoin="round" cx="33" cy="24" r="5"></circle>
                <circle id="circle-copy" stroke="#AE30FF" stroke-width="2" stroke-linecap="round" stroke-linejoin="round" cx="185" cy="37" r="3"></circle>
                <path d="M45.1988403,92.6134094 C40.5276308,86.4490762 32.9977815,82.4481371 24.5042606,82.4481371 C14.1455344,82.4481371 5.22020439,88.3992629 1.16588934,96.9680658" id="Oval-11-Copy-3" stroke="#AE30FF" stroke-width="2" stroke-linecap="round" stroke-linejoin="round" transform="translate(23.182365, 89.708101) rotate(18.000000) translate(-23.182365, -89.708101) "></path>
                <path d="M63,111 C63,103.820298 56.8608174,98 49.2877518,98 C47.0213756,98 44.8834199,98.5212737 43,99.4442565" id="Oval-13" stroke="#AE30FF" stroke-width="2" stroke-linecap="round" stroke-linejoin="round"></path>
                <path d="M82,118 C82,111.924868 77.1075414,107 71.0723879,107 C67.8749854,107 64.9983193,108.382333 63,110.585694" id="Oval-13-Copy" stroke="#AE30FF" stroke-width="2" stroke-linecap="round" stroke-linejoin="round"></path>
                <g id="Group-2" transform="translate(12.000000, 113.000000)" stroke="#AE30FF" stroke-linecap="round" stroke-linejoin="round" stroke-width="2">
                    <path d="M0,9 C4.97056275,9 9,4.97056275 9,0" id="Oval-6"></path>
                    <path d="M9,9 C13.9705627,9 18,4.97056275 18,0" id="Oval-6-Copy" transform="translate(13.500000, 4.500000) scale(-1, 1) translate(-13.500000, -4.500000) "></path>
                    <path d="M9,18 C13.9705627,18 18,13.9705627 18,9" id="Oval-6" transform="translate(13.500000, 13.500000) rotate(-180.000000) translate(-13.500000, -13.500000) "></path>
                    <path d="M0,18 C4.97056275,18 9,13.9705627 9,9" id="Oval-6-Copy" transform="translate(4.500000, 13.500000) scale(-1, 1) rotate(-180.000000) translate(-4.500000, -13.500000) "></path>
                </g>
                <g id="Group-2-Copy" transform="translate(153.000000, 0.000000)" stroke="#AE30FF" stroke-linecap="round" stroke-linejoin="round" stroke-width="2">
                    <path d="M0,9 C4.97056275,9 9,4.97056275 9,0" id="Oval-6"></path>
                    <path d="M9,9 C13.9705627,9 18,4.97056275 18,0" id="Oval-6-Copy" transform="translate(13.500000, 4.500000) scale(-1, 1) translate(-13.500000, -4.500000) "></path>
                    <path d="M9,18 C13.9705627,18 18,13.9705627 18,9" id="Oval-6" transform="translate(13.500000, 13.500000) rotate(-180.000000) translate(-13.500000, -13.500000) "></path>
                    <path d="M0,18 C4.97056275,18 9,13.9705627 9,9" id="Oval-6-Copy" transform="translate(4.500000, 13.500000) scale(-1, 1) rotate(-180.000000) translate(-4.500000, -13.500000) "></path>
                </g>
                <g id="Group-4" transform="translate(155.000000, 71.000000)" stroke="#AE30FF" stroke-linecap="round" stroke-linejoin="round" stroke-width="2">
                    <path d="M22,13.1496198 C20.1108948,9.50678718 16.1601927,7 11.5924644,7 C5.1901231,7 0,11.9248678 0,18" id="Oval-11"></path>
                    <path d="M57,8.24817796 C53.3410317,3.2463919 47.4428847,0 40.7898917,0 C32.2098838,0 24.8853264,5.39935885 22,13" id="Oval-11-Copy"></path>
                </g>
            </g>
        </g>
    </g>
</svg>